<svg viewBox="0 0 653 90" xmlns="http://www.w3.org/2000/svg">
  <path fill-rule="evenodd" clip-rule="evenodd"
    d="M259.1 20.68c3.97 0 7.5 1.23 9.17 2.11l14.1-1.76v8.55h-16.66c8.3.53 11.02 5.82 11.02 9.88 0 8.64-8.2 13.66-17.63 13.66a23.3 23.3 0 0 1-6.79-.97c-.88.7-1.5 1.85-1.5 2.91 0 2.3 2.3 3.27 4.68 3.27h11.55c9.6 0 16.04 5.2 16.04 13.13 0 12.17-13.13 15.34-23.71 15.34-12.88 0-21.7-4.5-21.7-12.16 0-4.85 3.8-9.17 12.53-9.17h1.4c-6.34-.62-9.34-3.27-9.34-6.88 0-3.35 3-6.44 9.35-6.7-6.62-2.3-10.58-7.85-10.58-14.99 0-9.79 7.67-16.22 18.07-16.22Zm-5.82 45.23c-4.5 0-7.4 2.55-7.4 6 0 5.55 6.52 7.22 13.49 7.22 8.02 0 14.72-1.85 14.72-7.4 0-3.35-2.73-5.82-8.2-5.82h-12.6Zm5.82-38.18c-5.73 0-9.52 3.97-9.52 9.17 0 5.47 3.79 9.26 9.52 9.26 5.73 0 9.44-3.8 9.44-9.26 0-5.2-3.7-9.17-9.44-9.17Zm-121.46-7.05c13.23 0 19.4 8.82 19.4 17.9v28.56h-8.73V53.21c0 9.61-6.17 15.08-14.81 15.08-9.08 0-15.52-5.91-15.52-14.37 0-8.47 6.26-13.4 14.99-14.29l15.43-1.58c-.1-5.38-3.97-9.61-10.76-9.61-6.26 0-9.26 3.96-10.05 7.58l-7.85-2.3c2.03-7.93 8.55-13.04 17.9-13.04Zm-2.73 26c-5.38.62-8.11 3.1-8.11 7.24 0 4.32 3.7 7.05 8.55 7.05 9.34 0 13.05-6.79 13.05-13.22v-2.47l-13.5 1.4Zm75.21-26c13.57 0 23.9 9.96 23.9 23.8 0 13.93-10.33 23.8-23.9 23.8-13.84 0-23.9-9.87-23.9-23.8 0-13.84 10.06-23.8 23.9-23.8Zm0 8.02c-8.55 0-14.9 6.7-14.9 15.78 0 9.44 6.35 15.78 14.9 15.78s14.9-6.34 14.9-15.78c0-9.08-6.35-15.78-14.9-15.78ZM60.69 67.14h-9.43l-4.32-13.66H17.67l-4.32 13.66H4L23.66 5.43h17.37l19.66 61.71ZM20.3 44.92h23.98L32.3 6.84 20.31 44.92Z"
    fill="currentColor" />
  <path
    d="M92.07 20.68c10.5 0 15.87 7.84 15.87 16.48v29.98h-8.82V39.72c0-6.26-4.67-10.67-10.58-10.67-6.79 0-11.37 4.94-11.37 11.64v26.45h-8.82V21.82h8.82v14.46c0-8.2 5.73-15.6 14.9-15.6Zm85.39 46.46h-8.82V5.43h8.82v61.71Zm176.32-34.02c5.76 0 9.18 4.32 9.18 10.38 0 6-3.42 10.32-9.18 10.32s-9.24-4.32-9.24-10.32c0-6.12 3.48-10.38 9.24-10.38Zm193.94 0c5.76 0 9.18 4.32 9.18 10.38 0 6-3.42 10.32-9.18 10.32s-9.24-4.32-9.24-10.32c0-6.12 3.48-10.38 9.24-10.38Zm-138.49-.06c5.64 0 9.6 4.26 9.6 10.38 0 6.12-3.96 10.38-9.6 10.38-5.7 0-9.6-4.26-9.6-10.38 0-6.12 3.9-10.38 9.6-10.38Zm53.37 0c5.65 0 9.6 4.26 9.6 10.38 0 6.12-3.95 10.38-9.6 10.38-5.7 0-9.6-4.26-9.6-10.38 0-6.12 3.9-10.38 9.6-10.38Zm118.58-.36c4.98 0 8.16 3.24 8.16 8.1h-16.92c.72-5.16 3.84-8.1 8.76-8.1Z"
    fill="currentColor" />
  <path fill-rule="evenodd" clip-rule="evenodd"
    d="M608.76 3c32.94 0 40 7.06 40 40s-7.06 40-40 40h-260c-32.94 0-40-7.06-40-40s7.06-40 40-40h260ZM499.3 28.8l11.82 30.9-1.02 2.82c-1.38 3.72-3.54 4.14-6.24 4.14h-3.78v4.62c1.5.36 3.06.6 4.92.6 4.5 0 7.44-2.1 9.42-7.14l13.86-35.94h-5.82l-8.7 23.64-8.52-23.64h-5.94Zm-144.32-.84c-4.68 0-8.64 2.1-10.62 6.12l-.42-5.28h-5.1v42.48h5.64V53.34c1.92 3.6 5.82 5.58 10.5 5.58 8.7 0 13.62-6.72 13.62-15.66 0-9-5.22-15.3-13.62-15.3Zm193.94 0c-4.68 0-8.64 2.1-10.62 6.12l-.42-5.28h-5.1v42.48h5.64V53.34c1.92 3.6 5.82 5.58 10.5 5.58 8.7 0 13.62-6.72 13.62-15.66 0-9-5.22-15.3-13.62-15.3Zm-139.7.06c-8.81 0-15.29 6.36-15.29 15.42 0 9.06 6.48 15.42 15.3 15.42 8.76 0 15.24-6.36 15.24-15.42 0-9.06-6.48-15.42-15.24-15.42Zm53.39 0c-8.82 0-15.3 6.36-15.3 15.42 0 9.06 6.48 15.42 15.3 15.42 8.76 0 15.24-6.36 15.24-15.42 0-9.06-6.48-15.42-15.24-15.42Zm118.57-.06c-8.52 0-14.34 6.36-14.34 15.54 0 9.12 5.94 15.36 14.58 15.36 7.26 0 12.18-3.54 13.62-9.84h-5.28c-.96 3.36-3.84 5.16-8.22 5.16-5.58 0-8.82-3.42-9.24-9.6l22.68-.06v-2.1c0-8.7-5.46-14.46-13.8-14.46Zm29.52 0c-6.48 0-11.04 3.42-11.04 8.82 0 4.32 2.46 6.9 7.68 8.16l5.16 1.2c3.06.78 4.02 1.98 4.02 3.96 0 2.7-2.28 4.32-6.24 4.32-3.72 0-6-1.8-6-4.8h-5.4c0 5.58 4.38 9.24 11.28 9.24 6.96 0 11.76-3.54 11.76-9.12 0-4.38-2.46-6.66-7.44-7.86l-5.16-1.26c-2.88-.72-4.32-2.04-4.32-4.02 0-2.7 1.98-4.26 5.52-4.26 3.42 0 5.4 1.86 5.52 4.8h5.4c-.12-5.58-4.32-9.18-10.74-9.18Zm-222.09.24c-4.02 0-6.96 2.04-8.16 5.1l-.35-4.44h-5.29v29.28h5.64V42.6c0-5.64 3.3-8.88 8.65-8.88h2.51v-5.16a13.61 13.61 0 0 0-3-.36Zm44.45-8.58v9.18h-5.76v4.74h5.76v24.6h5.64v-24.6h5.76V28.8h-5.76v-9.18h-5.64Zm53.38 0v9.18h-5.76v4.74h5.76v24.6h5.64v-24.6h5.76V28.8h-5.76v-9.18h-5.64Z"
    fill="currentColor" />
</svg>